<svg xmlns="http://www.w3.org/2000/svg" xmlns:xlink="http://www.w3.org/1999/xlink" width="24" height="24"><linearGradient id="a"><stop offset="0" stop-color="#eeeeec"/><stop offset="1" stop-color="#e0e0de"/></linearGradient><radialGradient id="b" cx="2.25" cy="16" r="16.875" gradientTransform="matrix(.479894 0 0 .11633788 10.772975 15.813237)" gradientUnits="userSpaceOnUse"><stop offset="0"/><stop offset="1" stop-opacity="0"/></radialGradient><linearGradient id="c" x1="9.446" x2="13.927" y1="8.231" y2="13.701" gradientTransform="matrix(1.0540526 0 0 1.0540525 .936542 -.961122)" gradientUnits="userSpaceOnUse" xlink:href="#a"/><linearGradient id="d" x1="9.446" x2="13.927" y1="8.231" y2="13.701" gradientTransform="matrix(.92855424 0 0 .92855416 2.253786 .343938)" gradientUnits="userSpaceOnUse" xlink:href="#a"/><g fill-rule="evenodd" transform="translate(0 2)"><ellipse cx="11.853" cy="17.675" fill="url(#b)" display="block" opacity=".433" rx="8.098" ry="1.963"/><path fill="url(#c)" stroke="#888a85" stroke-linejoin="round" stroke-width="1.09" d="m20.454811 9.5c0 4.947379-3.785348 8.954811-8.454811 8.954811-4.6694632 0-8.454811-3.785348-8.4548111-8.454811 0-4.6694632 4.2048111-8.3298111 8.9548111-8.4548111v7.9548111z"/><path fill="url(#d)" stroke="#fdfdfb" stroke-linejoin="round" stroke-width="1.104" d="m19.19816 10.5c0 2.688227-3.084655 6.948159-7.19816 6.948159-4.1135049 0-7.4481596-3.334654-7.4481597-7.448159 0-4.1135047 3.8612347-7.0106592 6.9237347-7.1356592l.04885 7.6747882z"/></g></svg>