<svg xmlns="http://www.w3.org/2000/svg" viewBox="0 0 24 24"><path fill="gray" d="m2 6v15h11.601562a5.5 5.5 0 0 1 -.390624-1h-10.210938v-13h18v6.607422a5.5 5.5 0 0 1 1 .652344v-8.259766z"/><path fill="#4d82b8" d="m1 3h22v2h-22z"/><path fill="#fff" d="m3 7v13h10.210938a5.5 5.5 0 0 1 -.210938-1.5 5.5 5.5 0 0 1 5.5-5.5 5.5 5.5 0 0 1 2.5.607422v-6.607422z"/><path fill="gray" d="m18.5 14a4.5 4.5 0 0 0 -4.5 4.5 4.5 4.5 0 0 0 4.5 4.5 4.5 4.5 0 0 0 4.5-4.5 4.5 4.5 0 0 0 -4.5-4.5zm0 1a3.5 3.5 0 0 1 3.5 3.5 3.5 3.5 0 0 1 -3.5 3.5 3.5 3.5 0 0 1 -3.5-3.5 3.5 3.5 0 0 1 3.5-3.5z"/><circle cx="18.5" cy="18.5" r="3.5" fill="#fff"/><path fill="#4d82b8" fill-rule="evenodd" d="m17 21 4-2.5-4-2.5z"/><path fill="#eac282" d="m5 9h14v2h-14z"/></svg>