<svg xmlns="http://www.w3.org/2000/svg" viewBox="0 0 24 24"><path fill="#fff" fill-rule="evenodd" d="m8 16v5h8v-5z"/><path fill="gray" d="m7 16v5.142578c0 .474857.3825649.857422.8574219.857422h8.2851561c.474857 0 .857422-.382565.857422-.857422v-5.142578h-1v5h-8v-5z"/><path fill="gray" d="m3 9c-.554 0-1 .446-1 1v8c0 .554.446 1 1 1h18c.554 0 1-.446 1-1v-8c0-.554-.446-1-1-1h-2v3c0 .554-.446 1-1 1h-12c-.554 0-1-.446-1-1v-3z"/><rect width="12" height="4.297" x="6" y="8" fill="#4d82b8" ry="1"/><path fill="gray" d="m7.8574219 4c-.474857 0-.8574219.3825649-.8574219.8574219v5.1425781h1v-5h8v5h1v-5.1425781c0-.474857-.382565-.8574219-.857422-.8574219z"/><g fill="#fff"><path fill-rule="evenodd" d="m8 5v5h8v-5z"/><path d="m18 16h2v1h-2z"/></g></svg>