<svg xmlns="http://www.w3.org/2000/svg" viewBox="0 0 24 24"><circle cx="-10" cy="10" r="6" fill="#fff" transform="scale(-1 1)"/><path fill="gray" d="m10 2a8 8 0 0 0 -8 8 8 8 0 0 0 8 8 8 8 0 0 0 8-8 8 8 0 0 0 -8-8zm0 2a6 6 0 0 1 6 6 6 6 0 0 1 -6 6 6 6 0 0 1 -6-6 6 6 0 0 1 6-6z"/><path fill="none" stroke="gray" stroke-linecap="round" stroke-width="2" d="m21 21-6-6"/><path fill="#4d82b8" d="m8 13h2l.0057-4.9955956-.00721-.5107218-1.1565324 1.1006983c-.0971244.0809307-.179506.1219684-.2725763.0976892-.0890238-.0283258-.1771688-.1450625-.2135876-.1976674l-.3557937-.4944027 2-2h1v7h1.288136v1h-4.288136z"/></svg>