<svg xmlns="http://www.w3.org/2000/svg" viewBox="0 0 24 24"><g fill="gray" transform="scale(-1 1)"><rect width="18" height="1" x="-21" y="2" ry=".5"/><rect width="13" height="1" x="-16" y="10" ry=".487"/><rect width="19" height="1" x="-22" y="21" ry=".411"/><rect width="6" height="1" x="-9" y="13" ry=".464"/><rect width="11" height="1" x="-14" y="5" ry=".5"/></g><path fill="none" stroke="#4d82b8" stroke-linecap="round" stroke-linejoin="round" d="m21.5 16.5-2.995 2.992879-3.005-2.992879"/><path fill="#4d82b8" fill-rule="evenodd" d="m11.5 13.007812c-.276142 0-.5.223858-.5.5s.223858.5.5.5h4c1.380712 0 2.5 1.119288 2.5 2.5h.0059v.423829 2.068359h1v-2.068359-.5c-.0059-2.154663-1.88341-3.373799-3.5059-3.423829z"/></svg>